<svg id="visual" viewBox="0 0 900 600" width="900" height="600" xmlns="http://www.w3.org/2000/svg" xmlns:xlink="http://www.w3.org/1999/xlink" version="1.1"><g stroke-width="1" stroke-linejoin="bevel"><path d="M416 304L318 379L421 378Z" fill="#002545" stroke="#002545"></path><path d="M416 304L293 329L318 379Z" fill="#0058cf" stroke="#0058cf"></path><path d="M198 503L333 464L318 379Z" fill="#0066ff" stroke="#0066ff"></path><path d="M318 379L333 464L421 378Z" fill="#002545" stroke="#002545"></path><path d="M287 226L238 312L293 329Z" fill="#004089" stroke="#004089"></path><path d="M293 329L238 312L318 379Z" fill="#00101c" stroke="#00101c"></path><path d="M416 304L287 226L293 329Z" fill="#001b30" stroke="#001b30"></path><path d="M296 600L361 509L333 464Z" fill="#005fe7" stroke="#005fe7"></path><path d="M333 464L361 509L421 378Z" fill="#0066ff" stroke="#0066ff"></path><path d="M502 221L426 186L416 304Z" fill="#0050b7" stroke="#0050b7"></path><path d="M416 304L426 186L287 226Z" fill="#0058cf" stroke="#0058cf"></path><path d="M531 409L525 270L421 378Z" fill="#005fe7" stroke="#005fe7"></path><path d="M421 378L525 270L416 304Z" fill="#0050b7" stroke="#0050b7"></path><path d="M361 509L531 409L421 378Z" fill="#004089" stroke="#004089"></path><path d="M525 270L502 221L416 304Z" fill="#0048a0" stroke="#0048a0"></path><path d="M595 491L565 398L531 409Z" fill="#0066ff" stroke="#0066ff"></path><path d="M531 409L565 398L525 270Z" fill="#0058cf" stroke="#0058cf"></path><path d="M123 210L163 378L238 312Z" fill="#003872" stroke="#003872"></path><path d="M238 312L163 378L318 379Z" fill="#0050b7" stroke="#0050b7"></path><path d="M565 398L588 285L525 270Z" fill="#005fe7" stroke="#005fe7"></path><path d="M525 270L577 222L502 221Z" fill="#003872" stroke="#003872"></path><path d="M269 138L226 167L287 226Z" fill="#002545" stroke="#002545"></path><path d="M287 226L226 167L238 312Z" fill="#00101c" stroke="#00101c"></path><path d="M426 186L269 138L287 226Z" fill="#00101c" stroke="#00101c"></path><path d="M163 378L198 503L318 379Z" fill="#0048a0" stroke="#0048a0"></path><path d="M588 285L577 222L525 270Z" fill="#003872" stroke="#003872"></path><path d="M496 70L401 78L426 186Z" fill="#0048a0" stroke="#0048a0"></path><path d="M426 186L401 78L269 138Z" fill="#001b30" stroke="#001b30"></path><path d="M510 600L533 537L361 509Z" fill="#0048a0" stroke="#0048a0"></path><path d="M361 509L533 537L531 409Z" fill="#0048a0" stroke="#0048a0"></path><path d="M296 600L368 600L361 509Z" fill="#0066ff" stroke="#0066ff"></path><path d="M198 503L296 600L333 464Z" fill="#002545" stroke="#002545"></path><path d="M496 70L426 186L502 221Z" fill="#0058cf" stroke="#0058cf"></path><path d="M533 537L595 491L531 409Z" fill="#0058cf" stroke="#0058cf"></path><path d="M565 398L669 386L588 285Z" fill="#0066ff" stroke="#0066ff"></path><path d="M163 378L135 485L198 503Z" fill="#001b30" stroke="#001b30"></path><path d="M198 503L184 600L296 600Z" fill="#001b30" stroke="#001b30"></path><path d="M103 137L123 210L226 167Z" fill="#0050b7" stroke="#0050b7"></path><path d="M226 167L123 210L238 312Z" fill="#002545" stroke="#002545"></path><path d="M163 378L69 401L135 485Z" fill="#0048a0" stroke="#0048a0"></path><path d="M368 600L510 600L361 509Z" fill="#003872" stroke="#003872"></path><path d="M533 537L582 600L595 491Z" fill="#005fe7" stroke="#005fe7"></path><path d="M577 222L496 70L502 221Z" fill="#002e5c" stroke="#002e5c"></path><path d="M595 491L669 386L565 398Z" fill="#004089" stroke="#004089"></path><path d="M588 285L669 226L577 222Z" fill="#0066ff" stroke="#0066ff"></path><path d="M577 222L625 92L496 70Z" fill="#0066ff" stroke="#0066ff"></path><path d="M64 297L69 401L163 378Z" fill="#0050b7" stroke="#0050b7"></path><path d="M123 210L64 297L163 378Z" fill="#005fe7" stroke="#005fe7"></path><path d="M669 386L683 319L588 285Z" fill="#002545" stroke="#002545"></path><path d="M332 0L202 77L269 138Z" fill="#0058cf" stroke="#0058cf"></path><path d="M269 138L202 77L226 167Z" fill="#0066ff" stroke="#0066ff"></path><path d="M123 210L0 269L64 297Z" fill="#0058cf" stroke="#0058cf"></path><path d="M332 0L269 138L401 78Z" fill="#00101c" stroke="#00101c"></path><path d="M85 600L184 600L135 485Z" fill="#003872" stroke="#003872"></path><path d="M135 485L184 600L198 503Z" fill="#0050b7" stroke="#0050b7"></path><path d="M683 319L669 226L588 285Z" fill="#001b30" stroke="#001b30"></path><path d="M510 600L582 600L533 537Z" fill="#0066ff" stroke="#0066ff"></path><path d="M595 491L701 463L669 386Z" fill="#002545" stroke="#002545"></path><path d="M202 77L103 137L226 167Z" fill="#004089" stroke="#004089"></path><path d="M468 0L404 0L401 78Z" fill="#002e5c" stroke="#002e5c"></path><path d="M404 0L332 0L401 78Z" fill="#002e5c" stroke="#002e5c"></path><path d="M662 600L701 463L595 491Z" fill="#0048a0" stroke="#0048a0"></path><path d="M833 439L806 279L683 319Z" fill="#004089" stroke="#004089"></path><path d="M496 70L468 0L401 78Z" fill="#0066ff" stroke="#0066ff"></path><path d="M612 0L468 0L496 70Z" fill="#0058cf" stroke="#0058cf"></path><path d="M669 226L625 92L577 222Z" fill="#0050b7" stroke="#0050b7"></path><path d="M332 0L225 0L202 77Z" fill="#0058cf" stroke="#0058cf"></path><path d="M202 77L135 0L103 137Z" fill="#002e5c" stroke="#002e5c"></path><path d="M0 176L0 269L123 210Z" fill="#003872" stroke="#003872"></path><path d="M64 297L0 421L69 401Z" fill="#005fe7" stroke="#005fe7"></path><path d="M0 269L0 421L64 297Z" fill="#002545" stroke="#002545"></path><path d="M69 401L0 532L135 485Z" fill="#005fe7" stroke="#005fe7"></path><path d="M0 532L85 600L135 485Z" fill="#0058cf" stroke="#0058cf"></path><path d="M582 600L662 600L595 491Z" fill="#001b30" stroke="#001b30"></path><path d="M103 137L0 176L123 210Z" fill="#0050b7" stroke="#0050b7"></path><path d="M0 99L0 176L103 137Z" fill="#0050b7" stroke="#0050b7"></path><path d="M0 421L0 532L69 401Z" fill="#0048a0" stroke="#0048a0"></path><path d="M225 0L135 0L202 77Z" fill="#0050b7" stroke="#0050b7"></path><path d="M690 0L612 0L625 92Z" fill="#0058cf" stroke="#0058cf"></path><path d="M625 92L612 0L496 70Z" fill="#0066ff" stroke="#0066ff"></path><path d="M802 179L736 131L669 226Z" fill="#002e5c" stroke="#002e5c"></path><path d="M669 226L736 131L625 92Z" fill="#0050b7" stroke="#0050b7"></path><path d="M806 279L669 226L683 319Z" fill="#0050b7" stroke="#0050b7"></path><path d="M833 439L669 386L701 463Z" fill="#0058cf" stroke="#0058cf"></path><path d="M833 439L683 319L669 386Z" fill="#004089" stroke="#004089"></path><path d="M135 0L0 99L103 137Z" fill="#004089" stroke="#004089"></path><path d="M0 532L0 600L85 600Z" fill="#004089" stroke="#004089"></path><path d="M662 600L799 506L701 463Z" fill="#004089" stroke="#004089"></path><path d="M806 279L802 179L669 226Z" fill="#005fe7" stroke="#005fe7"></path><path d="M736 131L690 0L625 92Z" fill="#0050b7" stroke="#0050b7"></path><path d="M764 0L690 0L736 131Z" fill="#0058cf" stroke="#0058cf"></path><path d="M799 506L833 439L701 463Z" fill="#0048a0" stroke="#0048a0"></path><path d="M900 114L809 135L802 179Z" fill="#0058cf" stroke="#0058cf"></path><path d="M900 221L802 179L806 279Z" fill="#004089" stroke="#004089"></path><path d="M802 179L809 135L736 131Z" fill="#00101c" stroke="#00101c"></path><path d="M135 0L0 0L0 99Z" fill="#003872" stroke="#003872"></path><path d="M662 600L820 600L799 506Z" fill="#004089" stroke="#004089"></path><path d="M900 490L900 405L833 439Z" fill="#0050b7" stroke="#0050b7"></path><path d="M809 135L764 0L736 131Z" fill="#001b30" stroke="#001b30"></path><path d="M900 490L833 439L799 506Z" fill="#0048a0" stroke="#0048a0"></path><path d="M833 439L900 405L806 279Z" fill="#0048a0" stroke="#0048a0"></path><path d="M809 135L900 0L764 0Z" fill="#002545" stroke="#002545"></path><path d="M900 405L900 279L806 279Z" fill="#003872" stroke="#003872"></path><path d="M900 279L900 221L806 279Z" fill="#002e5c" stroke="#002e5c"></path><path d="M820 600L900 490L799 506Z" fill="#005fe7" stroke="#005fe7"></path><path d="M900 221L900 114L802 179Z" fill="#005fe7" stroke="#005fe7"></path><path d="M820 600L900 600L900 490Z" fill="#0050b7" stroke="#0050b7"></path><path d="M900 114L900 0L809 135Z" fill="#0050b7" stroke="#0050b7"></path></g></svg>