<svg id="visual" viewBox="0 0 900 600" width="900" height="600" xmlns="http://www.w3.org/2000/svg" xmlns:xlink="http://www.w3.org/1999/xlink" version="1.1"><g stroke-width="1" stroke-linejoin="bevel"><path d="M481 299L493 200L417 279Z" fill="#bdc8d0" stroke="#bdc8d0"></path><path d="M493 200L367 213L417 279Z" fill="#e7ebed" stroke="#e7ebed"></path><path d="M481 299L571 266L493 200Z" fill="#c4ced5" stroke="#c4ced5"></path><path d="M367 213L339 260L417 279Z" fill="#a3b2bd" stroke="#a3b2bd"></path><path d="M393 396L496 386L481 299Z" fill="#b7c3cb" stroke="#b7c3cb"></path><path d="M435 107L332 206L367 213Z" fill="#aab8c2" stroke="#aab8c2"></path><path d="M367 213L332 206L339 260Z" fill="#cbd4da" stroke="#cbd4da"></path><path d="M533 90L435 107L493 200Z" fill="#d2dade" stroke="#d2dade"></path><path d="M493 200L435 107L367 213Z" fill="#e0e5e8" stroke="#e0e5e8"></path><path d="M393 396L481 299L417 279Z" fill="#e7ebed" stroke="#e7ebed"></path><path d="M481 299L572 375L571 266Z" fill="#b7c3cb" stroke="#b7c3cb"></path><path d="M339 260L393 396L417 279Z" fill="#aab8c2" stroke="#aab8c2"></path><path d="M496 386L572 375L481 299Z" fill="#b0bdc7" stroke="#b0bdc7"></path><path d="M624 184L533 90L493 200Z" fill="#d2dade" stroke="#d2dade"></path><path d="M669 163L624 184L719 307Z" fill="#d9dfe3" stroke="#d9dfe3"></path><path d="M571 266L624 184L493 200Z" fill="#e7ebed" stroke="#e7ebed"></path><path d="M624 184L616 88L533 90Z" fill="#a3b2bd" stroke="#a3b2bd"></path><path d="M719 307L624 184L571 266Z" fill="#e7ebed" stroke="#e7ebed"></path><path d="M624 184L669 163L616 88Z" fill="#e0e5e8" stroke="#e0e5e8"></path><path d="M431 0L295 89L435 107Z" fill="#d2dade" stroke="#d2dade"></path><path d="M435 107L295 89L332 206Z" fill="#b0bdc7" stroke="#b0bdc7"></path><path d="M168 275L272 396L339 260Z" fill="#bdc8d0" stroke="#bdc8d0"></path><path d="M431 0L435 107L511 0Z" fill="#cbd4da" stroke="#cbd4da"></path><path d="M214 202L339 260L332 206Z" fill="#aab8c2" stroke="#aab8c2"></path><path d="M339 260L272 396L393 396Z" fill="#a3b2bd" stroke="#a3b2bd"></path><path d="M511 0L435 107L533 90Z" fill="#b0bdc7" stroke="#b0bdc7"></path><path d="M594 0L511 0L533 90Z" fill="#d9dfe3" stroke="#d9dfe3"></path><path d="M295 89L214 202L332 206Z" fill="#d9dfe3" stroke="#d9dfe3"></path><path d="M404 513L529 494L496 386Z" fill="#a3b2bd" stroke="#a3b2bd"></path><path d="M496 386L529 494L572 375Z" fill="#c4ced5" stroke="#c4ced5"></path><path d="M572 375L719 307L571 266Z" fill="#bdc8d0" stroke="#bdc8d0"></path><path d="M404 513L496 386L393 396Z" fill="#aab8c2" stroke="#aab8c2"></path><path d="M734 420L719 307L572 375Z" fill="#d2dade" stroke="#d2dade"></path><path d="M323 531L404 513L393 396Z" fill="#d9dfe3" stroke="#d9dfe3"></path><path d="M719 0L594 0L616 88Z" fill="#c4ced5" stroke="#c4ced5"></path><path d="M616 88L594 0L533 90Z" fill="#cbd4da" stroke="#cbd4da"></path><path d="M760 196L699 95L669 163Z" fill="#c4ced5" stroke="#c4ced5"></path><path d="M669 163L699 95L616 88Z" fill="#aab8c2" stroke="#aab8c2"></path><path d="M295 89L210 115L214 202Z" fill="#e7ebed" stroke="#e7ebed"></path><path d="M190 0L210 115L295 89Z" fill="#b0bdc7" stroke="#b0bdc7"></path><path d="M214 202L168 275L339 260Z" fill="#cbd4da" stroke="#cbd4da"></path><path d="M68 162L168 275L214 202Z" fill="#c4ced5" stroke="#c4ced5"></path><path d="M431 0L295 0L295 89Z" fill="#d2dade" stroke="#d2dade"></path><path d="M168 275L203 398L272 396Z" fill="#aab8c2" stroke="#aab8c2"></path><path d="M272 396L323 531L393 396Z" fill="#a3b2bd" stroke="#a3b2bd"></path><path d="M719 307L760 196L669 163Z" fill="#b7c3cb" stroke="#b7c3cb"></path><path d="M519 600L594 523L529 494Z" fill="#bdc8d0" stroke="#bdc8d0"></path><path d="M529 494L594 523L572 375Z" fill="#b0bdc7" stroke="#b0bdc7"></path><path d="M221 460L323 531L272 396Z" fill="#bdc8d0" stroke="#bdc8d0"></path><path d="M404 513L519 600L529 494Z" fill="#cbd4da" stroke="#cbd4da"></path><path d="M203 398L221 460L272 396Z" fill="#c4ced5" stroke="#c4ced5"></path><path d="M719 483L734 420L572 375Z" fill="#e0e5e8" stroke="#e0e5e8"></path><path d="M719 307L822 277L760 196Z" fill="#e7ebed" stroke="#e7ebed"></path><path d="M760 196L792 133L699 95Z" fill="#bdc8d0" stroke="#bdc8d0"></path><path d="M699 95L719 0L616 88Z" fill="#cbd4da" stroke="#cbd4da"></path><path d="M900 190L792 133L760 196Z" fill="#e0e5e8" stroke="#e0e5e8"></path><path d="M594 523L719 483L572 375Z" fill="#c4ced5" stroke="#c4ced5"></path><path d="M784 0L719 0L699 95Z" fill="#aab8c2" stroke="#aab8c2"></path><path d="M316 600L417 600L323 531Z" fill="#e7ebed" stroke="#e7ebed"></path><path d="M323 531L417 600L404 513Z" fill="#cbd4da" stroke="#cbd4da"></path><path d="M594 523L714 600L719 483Z" fill="#c4ced5" stroke="#c4ced5"></path><path d="M417 600L519 600L404 513Z" fill="#d9dfe3" stroke="#d9dfe3"></path><path d="M719 483L770 433L734 420Z" fill="#b7c3cb" stroke="#b7c3cb"></path><path d="M734 420L770 433L719 307Z" fill="#c4ced5" stroke="#c4ced5"></path><path d="M770 433L822 277L719 307Z" fill="#bdc8d0" stroke="#bdc8d0"></path><path d="M295 0L190 0L295 89Z" fill="#a3b2bd" stroke="#a3b2bd"></path><path d="M68 162L91 330L168 275Z" fill="#aab8c2" stroke="#aab8c2"></path><path d="M519 600L599 600L594 523Z" fill="#bdc8d0" stroke="#bdc8d0"></path><path d="M168 275L91 330L203 398Z" fill="#e0e5e8" stroke="#e0e5e8"></path><path d="M203 398L68 513L221 460Z" fill="#b7c3cb" stroke="#b7c3cb"></path><path d="M68 162L214 202L210 115Z" fill="#a3b2bd" stroke="#a3b2bd"></path><path d="M172 600L316 600L323 531Z" fill="#a3b2bd" stroke="#a3b2bd"></path><path d="M172 600L323 531L221 460Z" fill="#e7ebed" stroke="#e7ebed"></path><path d="M719 483L779 471L770 433Z" fill="#b7c3cb" stroke="#b7c3cb"></path><path d="M900 416L900 314L822 277Z" fill="#d9dfe3" stroke="#d9dfe3"></path><path d="M768 600L779 471L719 483Z" fill="#c4ced5" stroke="#c4ced5"></path><path d="M91 79L68 162L210 115Z" fill="#d2dade" stroke="#d2dade"></path><path d="M900 86L784 0L792 133Z" fill="#aab8c2" stroke="#aab8c2"></path><path d="M792 133L784 0L699 95Z" fill="#d9dfe3" stroke="#d9dfe3"></path><path d="M190 0L91 79L210 115Z" fill="#b0bdc7" stroke="#b0bdc7"></path><path d="M0 318L73 385L91 330Z" fill="#bdc8d0" stroke="#bdc8d0"></path><path d="M91 330L73 385L203 398Z" fill="#d2dade" stroke="#d2dade"></path><path d="M0 90L0 197L68 162Z" fill="#cbd4da" stroke="#cbd4da"></path><path d="M190 0L110 0L91 79Z" fill="#bdc8d0" stroke="#bdc8d0"></path><path d="M599 600L714 600L594 523Z" fill="#c4ced5" stroke="#c4ced5"></path><path d="M900 314L900 190L822 277Z" fill="#b0bdc7" stroke="#b0bdc7"></path><path d="M822 277L900 190L760 196Z" fill="#d2dade" stroke="#d2dade"></path><path d="M900 416L822 277L770 433Z" fill="#d2dade" stroke="#d2dade"></path><path d="M900 416L770 433L779 471Z" fill="#b7c3cb" stroke="#b7c3cb"></path><path d="M68 513L172 600L221 460Z" fill="#c4ced5" stroke="#c4ced5"></path><path d="M0 90L68 162L91 79Z" fill="#d2dade" stroke="#d2dade"></path><path d="M68 162L0 197L91 330Z" fill="#d9dfe3" stroke="#d9dfe3"></path><path d="M900 190L900 86L792 133Z" fill="#bdc8d0" stroke="#bdc8d0"></path><path d="M714 600L768 600L719 483Z" fill="#cbd4da" stroke="#cbd4da"></path><path d="M0 197L0 318L91 330Z" fill="#aab8c2" stroke="#aab8c2"></path><path d="M73 385L68 513L203 398Z" fill="#b7c3cb" stroke="#b7c3cb"></path><path d="M900 535L900 416L779 471Z" fill="#cbd4da" stroke="#cbd4da"></path><path d="M0 410L68 513L73 385Z" fill="#b0bdc7" stroke="#b0bdc7"></path><path d="M0 0L0 90L91 79Z" fill="#a3b2bd" stroke="#a3b2bd"></path><path d="M0 318L0 410L73 385Z" fill="#b7c3cb" stroke="#b7c3cb"></path><path d="M68 513L122 600L172 600Z" fill="#a3b2bd" stroke="#a3b2bd"></path><path d="M0 600L122 600L68 513Z" fill="#cbd4da" stroke="#cbd4da"></path><path d="M900 86L900 0L784 0Z" fill="#a3b2bd" stroke="#a3b2bd"></path><path d="M110 0L0 0L91 79Z" fill="#e7ebed" stroke="#e7ebed"></path><path d="M768 600L900 535L779 471Z" fill="#e7ebed" stroke="#e7ebed"></path><path d="M0 410L0 521L68 513Z" fill="#d9dfe3" stroke="#d9dfe3"></path><path d="M768 600L900 600L900 535Z" fill="#b0bdc7" stroke="#b0bdc7"></path><path d="M0 521L0 600L68 513Z" fill="#bdc8d0" stroke="#bdc8d0"></path></g></svg>